<?xml version="1.0" encoding="UTF-8"?>
<svg width="37px" height="50px" viewBox="0 0 37 50" version="1.1" xmlns="http://www.w3.org/2000/svg" xmlns:xlink="http://www.w3.org/1999/xlink">
    <!-- Generator: Sketch 43.1 (39012) - http://www.bohemiancoding.com/sketch -->
    <title>Page 1</title>
    <desc>Created with Sketch.</desc>
    <defs>
        <polygon id="path-1" points="36.6258716 0 5.34090844e-05 2.26768958e-14 5.34090844e-05 49.9655452 36.6258716 49.9655452 36.6258716 2.26768958e-14"></polygon>
    </defs>
    <g id="BLOK-HAIRCUTS" stroke="none" stroke-width="1" fill="none" fill-rule="evenodd">
        <g id="Mobile" transform="translate(-147.000000, -1168.000000)">
            <g id="Group-6" transform="translate(62.000000, 1168.000000)">
                <g id="Page-1" transform="translate(85.000000, 0.000000)">
                    <mask id="mask-2" fill="white">
                        <use xlink:href="#path-1"></use>
                    </mask>
                    <g id="Clip-2"></g>
                    <path d="M12.0814568,6.33269947 L18.2494057,6.33269947 C26.2613034,6.33269947 30.2672523,10.3223271 30.2672523,15.2618218 C30.2672523,20.2014495 26.2613034,24.1910771 21.3016017,24.1910771 L12.0814568,24.1910771 L12.0814568,6.33269947 Z M21.3016017,30.5239229 C29.7586642,30.5239229 36.6258716,23.6844282 36.6258716,15.2618218 C36.6258716,6.8393484 29.7586642,-1.3297872e-05 21.3016017,-1.3297872e-05 L5.7228375,-1.3297872e-05 L5.7228375,3.5462633 L5.7228375,6.33269947 L5.7228375,24.1910771 L5.34090844e-05,24.1910771 L5.34090844e-05,30.5239229 L5.7228375,30.5239229 L5.7228375,35.7800399 L5.34090844e-05,35.7800399 L5.34090844e-05,42.1127527 L5.7228375,42.1127527 L5.7228375,49.9655452 L12.0814568,49.9655452 L12.0814568,42.1127527 L26.5157977,42.1127527 L26.5157977,35.7800399 L12.0814568,35.7800399 L12.0814568,30.5239229 L21.3016017,30.5239229 Z" id="Fill-1" fill="#002539" mask="url(#mask-2)"></path>
                </g>
            </g>
        </g>
    </g>
</svg>