<?xml version="1.0" encoding="UTF-8"?>
<svg width="30px" height="30px" viewBox="0 0 30 30" version="1.1" xmlns="http://www.w3.org/2000/svg" xmlns:xlink="http://www.w3.org/1999/xlink">
    <!-- Generator: Sketch 43.1 (39012) - http://www.bohemiancoding.com/sketch -->
    <title>Facebook</title>
    <desc>Created with Sketch.</desc>
    <defs></defs>
    <g id="BLOK-HAIRCUTS" stroke="none" stroke-width="1" fill="none" fill-rule="evenodd">
        <g id="desktop-main-" transform="translate(-1331.000000, -5718.000000)" fill="#002539">
            <path d="M1361,5746.34437 C1361,5747.25881 1360.25881,5748 1359.34437,5748 L1351.69952,5748 L1351.69952,5736.38277 L1355.59917,5736.38277 L1356.18346,5731.8547 L1351.69952,5731.8547 L1351.69952,5728.96429 C1351.69952,5727.65351 1352.06399,5726.76032 1353.94353,5726.76032 L1356.34118,5726.75868 L1356.34118,5722.70949 C1355.92686,5722.65392 1354.50331,5722.53134 1352.84768,5722.53134 C1349.39095,5722.53134 1347.02435,5724.64133 1347.02435,5728.51565 L1347.02435,5731.8547 L1343.1149,5731.8547 L1343.1149,5736.38277 L1347.02435,5736.38277 L1347.02435,5748 L1332.65563,5748 C1331.74119,5748 1331,5747.25881 1331,5746.34437 L1331,5719.65563 C1331,5718.74119 1331.74119,5718 1332.65563,5718 L1359.34437,5718 C1360.25881,5718 1361,5718.74119 1361,5719.65563 L1361,5746.34437" id="Facebook"></path>
        </g>
    </g>
</svg>