<?xml version="1.0" encoding="UTF-8"?>
<svg width="30px" height="30px" viewBox="0 0 30 30" version="1.1" xmlns="http://www.w3.org/2000/svg" xmlns:xlink="http://www.w3.org/1999/xlink">
    <!-- Generator: Sketch 43.1 (39012) - http://www.bohemiancoding.com/sketch -->
    <title>Instagram</title>
    <desc>Created with Sketch.</desc>
    <defs></defs>
    <g id="BLOK-HAIRCUTS" stroke="none" stroke-width="1" fill="none" fill-rule="evenodd">
        <g id="desktop-main-" transform="translate(-1376.000000, -5718.000000)" fill="#002539">
            <path d="M1402.43401,5718 L1379.56599,5718 C1377.59643,5718 1376,5719.59234 1376,5721.55781 L1376,5744.44219 C1376,5746.40684 1377.59643,5748 1379.56599,5748 L1402.43401,5748 C1404.40357,5748 1406,5746.40684 1406,5744.44219 L1406,5721.55781 C1406,5719.59234 1404.40357,5718 1402.43401,5718 L1402.43401,5718 Z M1397.56288,5722.68701 C1397.56288,5722.16987 1397.98265,5721.74928 1398.4998,5721.74928 L1401.31217,5721.74928 C1401.83013,5721.74928 1402.2499,5722.16987 1402.2499,5722.68701 L1402.2499,5725.49939 C1402.2499,5726.01735 1401.83013,5726.43712 1401.31217,5726.43712 L1398.4998,5726.43712 C1397.98265,5726.43712 1397.56288,5726.01735 1397.56288,5725.49939 L1397.56288,5722.68701 L1397.56288,5722.68701 Z M1391.03478,5727.27911 C1394.22109,5727.27911 1396.80435,5729.85664 1396.80435,5733.03396 C1396.80435,5736.21373 1394.22109,5738.79044 1391.03478,5738.79044 C1387.84928,5738.79044 1385.26602,5736.21373 1385.26602,5733.03396 C1385.26602,5729.85664 1387.84928,5727.27911 1391.03478,5727.27911 L1391.03478,5727.27911 Z M1403.18763,5744.2499 C1403.18763,5744.76704 1402.76786,5745.18763 1402.2499,5745.18763 L1379.7501,5745.18763 C1379.23214,5745.18763 1378.81237,5744.76704 1378.81237,5744.2499 L1378.81237,5730.18722 L1382.56247,5730.18722 C1382.07397,5730.89011 1381.90868,5732.20178 1381.90868,5733.03396 C1381.90868,5738.05482 1386.00327,5742.1396 1391.03478,5742.1396 C1396.0671,5742.1396 1400.16169,5738.05482 1400.16169,5733.03396 C1400.16169,5732.20178 1400.04304,5730.90975 1399.43753,5730.18722 L1403.18763,5730.18722 L1403.18763,5744.2499 L1403.18763,5744.2499 Z" id="Instagram"></path>
        </g>
    </g>
</svg>