<?xml version="1.0" encoding="UTF-8"?>
<svg width="44px" height="50px" viewBox="0 0 44 50" version="1.1" xmlns="http://www.w3.org/2000/svg" xmlns:xlink="http://www.w3.org/1999/xlink">
    <!-- Generator: Sketch 43.1 (39012) - http://www.bohemiancoding.com/sketch -->
    <title>Fill 1</title>
    <desc>Created with Sketch.</desc>
    <defs></defs>
    <g id="BLOK-HAIRCUTS" stroke="none" stroke-width="1" fill="none" fill-rule="evenodd">
        <g id="Mobile" transform="translate(-138.000000, -1346.000000)" fill="#002539">
            <g id="Group-7" transform="translate(19.000000, 1346.000000)">
                <g id="Page-1" transform="translate(119.000000, 0.000000)">
                    <path d="M36.9511953,43.761 C35.1231953,45.247 32.2601953,44.932 30.7891953,43.117 C30.0531953,42.206 29.7141953,41.063 29.8331953,39.899 C29.9561953,38.736 30.5241953,37.688 31.4381953,36.951 C32.2251953,36.311 33.1791953,35.975 34.1921953,35.975 C35.5181953,35.975 36.7641953,36.564 37.5991953,37.601 C38.3381953,38.509 38.6781953,39.653 38.5531953,40.817 C38.4301953,41.98 37.8621953,43.029 36.9511953,43.761 M21.9161953,28.962 C20.4641953,28.962 19.2861953,27.783 19.2861953,26.332 C19.2861953,24.881 20.4641953,23.702 21.9161953,23.702 C23.3671953,23.702 24.5461953,24.881 24.5461953,26.332 C24.5461953,27.783 23.3671953,28.962 21.9161953,28.962 M13.0551953,43.114 C11.5781953,44.931 8.7191953,45.247 6.8881953,43.761 C5.9761953,43.028 5.4091953,41.98 5.2841953,40.817 C5.1611953,39.652 5.5001953,38.508 6.2411953,37.597 C7.0751953,36.563 8.3191953,35.974 9.6471953,35.974 C10.6601953,35.974 11.6131953,36.31 12.4041953,36.953 C13.3151953,37.687 13.8841953,38.735 14.0071953,39.898 C14.1261953,41.063 13.7861953,42.205 13.0551953,43.114 M41.6881953,34.29 C39.2321953,31.256 34.9651953,30.157 31.3121953,31.225 L27.2421953,26.199 L43.0351953,4.666 C43.0351953,4.666 40.9641953,2.553 40.2851953,2.004 C38.9251953,0.905 37.8151953,0 37.8151953,0 L21.9201953,19.629 L6.0241953,0 C6.0241953,0 4.9151953,0.905 3.5561953,2.004 C2.8181953,2.601 0.618195301,4.249 0.618195301,4.249 L16.5991953,26.199 L12.5281953,31.225 C8.8711953,30.157 4.6081953,31.256 2.1521953,34.29 C0.530195301,36.289 -0.213804699,38.803 0.0531953012,41.364 C0.324195301,43.926 1.5781953,46.231 3.5771953,47.85 C5.2891953,49.237 7.4431953,50 9.6421953,50 C12.5671953,50 15.2971953,48.699 17.1401953,46.426 C18.7591953,44.423 19.5061953,41.912 19.2361953,39.352 C19.1981953,38.992 19.0971953,38.654 19.0231953,38.307 L21.9211953,33.99 L24.8161953,38.307 C24.7421953,38.654 24.6421953,38.992 24.6051953,39.352 C24.3341953,41.912 25.0821953,44.423 26.7011953,46.426 C28.5421953,48.699 31.2741953,50 34.1981953,50 C36.3971953,50 38.5511953,49.237 40.2601953,47.85 C42.2631953,46.231 43.5161953,43.926 43.7861953,41.364 C44.0531953,38.803 43.3111953,36.289 41.6881953,34.29" id="Fill-1"></path>
                </g>
            </g>
        </g>
    </g>
</svg>