<?xml version="1.0" encoding="UTF-8"?>
<svg width="30px" height="30px" viewBox="0 0 30 30" version="1.1" xmlns="http://www.w3.org/2000/svg" xmlns:xlink="http://www.w3.org/1999/xlink">
    <!-- Generator: Sketch 43.1 (39012) - http://www.bohemiancoding.com/sketch -->
    <title>Combined Shape</title>
    <desc>Created with Sketch.</desc>
    <defs></defs>
    <g id="BLOK-HAIRCUTS" stroke="none" stroke-width="1" fill="none" fill-rule="evenodd">
        <g id="desktop-main-" transform="translate(-1286.000000, -5718.000000)" fill="#002539">
            <path d="M1286,5719.99162 C1286,5718.89168 1286.89784,5718 1287.99162,5718 L1314.00838,5718 C1315.10832,5718 1316,5718.89784 1316,5719.99162 L1316,5746.00838 C1316,5747.10832 1315.10216,5748 1314.00838,5748 L1287.99162,5748 C1286.89168,5748 1286,5747.10216 1286,5746.00838 L1286,5719.99162 Z M1309.97464,5728.74266 C1309.97464,5728.74266 1309.84344,5728.36779 1309.0281,5728.47088 L1306.32905,5728.48962 C1306.12288,5728.46151 1305.97293,5728.54585 1305.97293,5728.54585 C1305.97293,5728.54585 1305.81361,5728.6302 1305.73864,5728.83638 C1305.29817,5729.97035 1304.73587,5730.945 1304.73587,5730.945 C1303.53629,5732.98803 1303.04896,5733.10049 1302.85216,5732.96929 C1302.39295,5732.67877 1302.51478,5731.78846 1302.51478,5731.15118 C1302.51478,5729.16438 1302.81467,5728.33968 1301.92436,5728.12413 C1301.63384,5728.05853 1301.41829,5728.01167 1300.65919,5728.0023 C1299.6939,5727.99292 1298.87856,5728.0023 1298.41935,5728.22722 C1298.11009,5728.37716 1297.87579,5728.71454 1298.01637,5728.73329 C1298.19443,5728.7614 1298.59741,5728.84575 1298.81296,5729.13627 C1298.81296,5729.13627 1299.04726,5729.52051 1299.08474,5730.36396 C1299.18783,5732.69751 1298.70987,5732.98803 1298.70987,5732.98803 C1298.34438,5733.18484 1297.7071,5732.85683 1296.76994,5730.92626 C1296.76994,5730.92626 1296.22638,5729.97035 1295.80465,5728.92072 C1295.72968,5728.72391 1295.57973,5728.62083 1295.57973,5728.62083 C1295.57973,5728.62083 1295.41104,5728.48962 1295.16738,5728.45214 L1292.59954,5728.47088 C1292.20593,5728.47088 1292.06535,5728.64894 1292.06535,5728.64894 C1292.06535,5728.64894 1291.92477,5728.79889 1292.05598,5729.10815 C1294.06152,5733.82211 1296.34821,5736.18378 1296.34821,5736.18378 C1296.34821,5736.18378 1298.4381,5738.36738 1300.80913,5738.21743 L1301.88688,5738.21743 C1302.21488,5738.18932 1302.38358,5738.01125 1302.38358,5738.01125 C1302.38358,5738.01125 1302.53352,5737.84256 1302.52415,5737.5333 C1302.50541,5736.09006 1303.18017,5735.87451 1303.18017,5735.87451 C1303.83619,5735.66833 1304.67964,5737.27089 1305.57932,5737.88942 C1305.57932,5737.88942 1306.26345,5738.35801 1306.7789,5738.25492 L1309.17805,5738.21743 C1310.44322,5738.20806 1309.84344,5737.15843 1309.84344,5737.15843 C1309.79658,5737.07409 1309.49668,5736.42744 1308.05344,5735.08729 C1306.55397,5733.69091 1306.75078,5733.91583 1308.56889,5731.49793 C1309.67475,5730.02658 1310.11522,5729.1269 1309.97464,5728.74266 Z" id="Combined-Shape"></path>
        </g>
    </g>
</svg>